#!OML:ASF E:\CV Data\Top Level 1\Subject 1\Session 1\player.ASF
:FULLY-SPECIFIED
:DEGREES
784
root 6.26805 17.1256 -9.41353 156.214 -81.4406 -155.974
lowerback 6.58557 2.76748 2.35926
upperback -0.083904 3.88938 0.917137
thorax -3.68182 1.88952 -0.745381
lowerneck -14.7983 14.7322 -2.87238
upperneck 19.3445 20.0077 4.19773
head 7.63457 9.68325 3.83263
rclavicle 1.32425e-014 -7.95139e-016
rhumerus 138.302 142.406 74.709
rradius 95.6046
rwrist -2.49001
rhand -32.3528 20.2586
rfingers 7.12502
rthumb -5.58939 -9.64767
lclavicle 1.32425e-014 -7.95139e-016
lhumerus -42.6861 -38.2885 112.52
lradius 93.6034
lwrist 30.721
lhand -26.1798 17.3654
lfingers 7.12502
lthumb 0.372046 47.3448
rfemur -18.0745 12.9459 27.653
rtibia 41.7146
rfoot -21.3139 -0.792459
rtoes 14.1888
lfemur -16.6442 5.67046 -13.2866
ltibia 39.5084
lfoot -17.9062 1.90258
ltoes -1.3614
785
root 6.30651 17.1234 -9.4395 154.746 -81.6439 -154.351
lowerback 6.75911 2.74196 2.44269
upperback -0.058026 3.86612 0.92504
thorax -3.74809 1.87506 -0.790095
lowerneck -14.8469 14.6885 -2.92318
upperneck 19.2167 19.9617 4.17497
head 7.59965 9.66083 3.82401
rclavicle -4.40681e-014 -1.62506e-014
rhumerus 138.528 142.314 74.7421
rradius 95.5987
rwrist -2.27959
rhand -32.5179 20.3923
rfingers 7.12502
rthumb -5.74873 -9.50974
lclavicle -4.40681e-014 -1.62506e-014
lhumerus -42.5105 -38.328 112.466
lradius 93.6947
lwrist 30.9807
lhand -26.5075 17.6814
lfingers 7.12502
lthumb 0.055559 47.6611
rfemur -18.3908 12.6859 27.8321
rtibia 41.7203
rfoot -21.1551 -0.761757
rtoes 14.1917
lfemur -17.1848 5.69944 -13.0496
ltibia 39.8364
lfoot -18.0334 1.86108
ltoes -2.22228
786
root 6.34765 17.1207 -9.46632 153.105 -81.8749 -152.527
lowerback 6.92931 2.71163 2.52222
upperback -0.0347042 3.83641 0.932489
thorax -3.81559 1.85739 -0.83229
lowerneck -14.9032 14.6392 -2.99659
upperneck 19.0753 19.912 4.15782
head 7.55878 9.63639 3.81917
rclavicle 1.0066e-013 1.44119e-015
rhumerus 138.76 142.228 74.7843
rradius 95.5962
rwrist -2.03188
rhand -32.673 20.5165
rfingers 7.12502
rthumb -5.89849 -9.38144
lclavicle 1.0066e-013 1.44119e-015
lhumerus -42.3312 -38.3723 112.412
lradius 93.7812
lwrist 31.2141
lhand -26.8346 17.9951
lfingers 7.12502
lthumb -0.260327 47.9747
rfemur -18.7571 12.3861 28.0064
rtibia 41.74
rfoot -20.9934 -0.723189
rtoes 14.2039
lfemur -17.778 5.73689 -12.8148
ltibia 40.1851
lfoot -18.2621 1.83937
ltoes -3.41507
787
root 6.39053 17.1174 -9.49323 151.282 -82.1222 -150.513
lowerback 7.10833 2.67975 2.60015
upperback -0.0104173 3.80509 0.941629
thorax -3.88737 1.83883 -0.872019
lowerneck -14.9597 14.5859 -3.07397
upperneck 18.9213 19.8592 4.13243
head 7.51448 9.60986 3.81136
rclavicle 1.85087e-014 7.65321e-015
rhumerus 138.986 142.149 74.8377
rradius 95.5932
rwrist -1.67987
rhand -32.8374 20.6184
rfingers 7.12502
rthumb -6.05724 -9.27501
lclavicle 1.85087e-014 7.65321e-015
lhumerus -42.151 -38.4085 112.371
lradius 93.8469
lwrist 31.4091
lhand -27.007 18.2222
lfingers 7.12502
lthumb -0.426818 48.2015
rfemur -19.1471 12.051 28.1768
rtibia 41.7726
rfoot -20.8356 -0.675475
rtoes 14.2214
lfemur -18.3902 5.77466 -12.5858
ltibia 40.5526
lfoot -18.6004 1.82873
ltoes -4.76424
788
root 6.43489 17.1138 -9.51969 149.239 -82.3825 -148.279
lowerback 7.29991 2.64776 2.68271
upperback 0.0171738 3.77457 0.951428
thorax -3.96254 1.82044 -0.91413
lowerneck -15.0134 14.5281 -3.13034
upperneck 18.7548 19.7997 4.08402
head 7.47078 9.57948 3.79291
rclavicle -2.70596e-014 1.09332e-015
rhumerus 139.204 142.086 74.9029
rradius 95.5868
rwrist -1.18832
rhand -33.0306 20.7045
rfingers 7.12502
rthumb -6.24376 -9.18351
lclavicle -2.70596e-014 1.09332e-015
lhumerus -41.9718 -38.4419 112.34
lradius 93.8971
lwrist 31.5821
lhand -27.1278 18.356
lfingers 7.12502
lthumb -0.543502 48.3351
rfemur -19.5482 11.6815 28.3438
rtibia 41.8125
rfoot -20.6804 -0.619352
rtoes 14.2602
lfemur -19.0112 5.81418 -12.3666
ltibia 40.9416
lfoot -19.0353 1.82046
ltoes -6.22219
789
root 6.48044 17.1098 -9.54579 146.942 -82.6408 -145.793
lowerback 7.50032 2.61862 2.75982
upperback 0.047251 3.74831 0.973093
thorax -4.04115 1.80421 -0.941655
lowerneck -15.0564 14.4689 -3.14346
upperneck 18.5773 19.7376 3.9878
head 7.43166 9.54587 3.75373
rclavicle 6.22693e-014 1.56046e-014
rhumerus 139.4 142.028 74.9854
rradius 95.5822
rwrist -0.562476
rhand -33.2468 20.7786
rfingers 7.12502
rthumb -6.45249 -9.10312
lclavicle 6.22693e-014 1.56046e-014
lhumerus -41.7984 -38.4556 112.337
lradius 93.9298
lwrist 31.7319
lhand -27.2149 18.4587
lfingers 7.12502
lthumb -0.627666 48.4376
rfemur -19.9531 11.293 28.5169
rtibia 41.8523
rfoot -20.5247 -0.560934
rtoes 14.3041
lfemur -19.6343 5.87528 -12.1473
ltibia 41.3525
lfoot -19.5484 1.77328
ltoes -7.54924
790
root 6.5267 17.106 -9.57109 144.317 -82.8809 -142.99
lowerback 7.71243 2.59033 2.84448
upperback 0.0832085 3.72489 1.01283
thorax -4.12089 1.7892 -0.955292
lowerneck -15.0873 14.4121 -3.12443
upperneck 18.3901 19.6792 3.84901
head 7.39524 9.51186 3.69711
rclavicle 3.8968e-014 5.26779e-015
rhumerus 139.569 141.964 75.0824
rradius 95.5847
rwrist 0.152307
rhand -33.4622 20.8548
rfingers 7.12502
rthumb -6.6604 -9.02048
lclavicle 3.8968e-014 5.26779e-015
lhumerus -41.6131 -38.4365 112.348
lradius 93.9497
lwrist 31.8658
lhand -27.2735 18.4924
lfingers 7.12502
lthumb -0.684252 48.471
rfemur -20.3443 10.8988 28.7097
rtibia 41.8842
rfoot -20.3643 -0.503906
rtoes 14.3663
lfemur -20.2453 5.95265 -11.9162
ltibia 41.79
lfoot -20.1204 1.68006
ltoes -8.65158
791
root 6.57334 17.1024 -9.59606 141.434 -83.1031 -139.945
lowerback 7.93651 2.56349 2.93092
upperback 0.125258 3.70435 1.05993
thorax -4.20126 1.77552 -0.962899
lowerneck -15.1 14.3583 -3.07708
upperneck 18.1914 19.6231 3.68022
head 7.35807 9.47808 3.62638
rclavicle 8.33653e-015 1.20265e-014
rhumerus 139.711 141.898 75.1796
rradius 95.5995
rwrist 0.894985
rhand -33.6564 20.9411
rfingers 7.12502
rthumb -6.8479 -8.92814
lclavicle 8.33653e-015 1.20265e-014
lhumerus -41.4358 -38.404 112.37
lradius 93.9691
lwrist 31.9822
lhand -27.3822 18.481
lfingers 7.12502
lthumb -0.789223 48.4592
rfemur -20.7131 10.5118 28.9111
rtibia 41.9045
rfoot -20.1989 -0.461078
rtoes 14.4328
lfemur -20.8352 6.03987 -11.6882
ltibia 42.2562
lfoot -20.7261 1.56343
ltoes -9.56836
792
root 6.62046 17.099 -9.62064 138.275 -83.2818 -136.63
lowerback 8.15691 2.5365 3.02709
upperback 0.172096 3.6852 1.12693
thorax -4.27525 1.76246 -0.954983
lowerneck -15.1052 14.3124 -3.0286
upperneck 17.9909 19.581 3.49101
head 7.32081 9.44902 3.55005
rclavicle 2.35746e-014 4.47266e-015
rhumerus 139.824 141.797 75.2777
rradius 95.6283
rwrist 1.61072
rhand -33.8261 21.0317
rfingers 7.12502
rthumb -7.01168 -8.83218
lclavicle 2.35746e-014 4.47266e-015
lhumerus -41.246 -38.3268 112.405
lradius 93.9861
lwrist 32.0653
lhand -27.6225 18.497
lfingers 7.12502
lthumb -1.02134 48.4743
rfemur -21.0725 10.1495 29.1399
rtibia 41.9135
rfoot -20.0242 -0.432437
rtoes 14.5102
lfemur -21.4163 6.17333 -11.4436
ltibia 42.759
lfoot -21.312 1.43568
ltoes -10.4333
793
root 6.66806 17.0957 -9.64512 134.97 -83.4287 -133.173
lowerback 8.36765 2.51211 3.13551
upperback 0.226415 3.67028 1.19152
thorax -4.33489 1.75143 -0.955956
lowerneck -15.1002 14.2668 -2.99317
upperneck 17.7809 19.5391 3.31279
head 7.27611 9.42103 3.47708
rclavicle -1.3213e-014 -1.34677e-014
rhumerus 139.932 141.684 75.3695
rradius 95.6648
rwrist 2.25365
rhand -33.9633 21.1336
rfingers 7.12502
rthumb -7.14418 -8.72577
lclavicle -1.3213e-014 -1.34677e-014
lhumerus -41.056 -38.2551 112.428
lradius 94.0125
lwrist 32.1238
lhand -27.8968 18.4535
lfingers 7.12502
lthumb -1.28623 48.4293
rfemur -21.4235 9.81188 29.3768
rtibia 41.9151
rfoot -19.8423 -0.42246
rtoes 14.5745
lfemur -21.9819 6.35396 -11.2097
ltibia 43.3058
lfoot -21.8396 1.35683
ltoes -11.2898
